<?xml version="1.0" encoding="UTF-8"?>
<!DOCTYPE svg PUBLIC "-//W3C//DTD SVG 1.1//EN" "http://www.w3.org/Graphi c s/SVG/1.1/DTD/svg11.dtd">
<svg version="1.1" xmlns="http://www.w3.org/2000/svg" xmlns:xlink="http://www.w3.org/1999/xlink" width="460px" height="440px" viewBox="80 30 440 440" xml:space="preserve">
	<g style="fill:#000000; stroke:#000000; stroke-width:3;">
		<path style="fill:none;" d="M 205.041,366.998 c -44.333 -31.121 -74.01 -81.703 -76.621 -139.339"/>
		<polygon style="stroke:none;" points="135.622,239.081 133.785,239.874 128.592,227.846 124.839,240.397 122.923,239.824 128.251,222.009"/>
		<path style="fill:none;" d="M 488.646,225 c -1.885,61.366 -34.441,115.01 -82.857,146.119"/>
		<polygon style="stroke:none;" points="412.052,359.151 413.659,360.344 405.863,370.872 418.603,367.817 419.069,369.762 400.987,374.098"/>
		<path style="fill:none;" d="M 213.042,66.426 c 27.677 -17.308,60.391 -27.312,95.44 -27.312 c 31.801,0,61.678,8.235,87.617,22.69"/>
		<polygon style="stroke:none;" points="382.591,61.921 382.884,59.942 395.845,61.852 387.144,52.058 388.638,50.73 400.988,64.631"/>
	</g>
	<g style="fill:none; stroke:#FFFFFF; stroke-width :2.5;"> 
		<g>
			<circle fill="#800000" cx="307" cy="395" r="62"/>
			<path d="M 280.285,439.183 c 0.03,0.134,0.06,0.269,0.09,0.403 c 0.339 -0.088,0.728 -0.097,1.009 -0.275 c 4.139 -2.636,8.358 -5.103,12.967 -6.862 c 3.311 -1.265,6.666 -2.418,9.691 -4.369 c 2.101 -1.355,4.33 -2.547,6.599 -3.601 c 3.21 -1.491,6.107 -3.383,8.576 -5.913 c 3.716 -3.808,7.806 -7.168,12.109 -10.287 c 1.609 -1.166,3.107 -2.489,4.617 -3.787 c 0.353 -0.302,0.546 -0.789,0.81 -1.193 c 0.592 -0.909,1.021 -2.001,1.805 -2.692 c 1.81 -1.599,2.23 -3.497,1.759 -5.729 c -0.393 -1.855 -0.835 -3.702 -1.184 -5.565 c -0.505 -2.705 -1.249 -5.311 -2.896 -7.567 c -0.561 -0.769 -0.855 -1.555 -0.85 -2.537 c 0.005 -0.634 -0.273 -1.322 -0.589 -1.897 c -1.51 -2.754 -3.35 -5.279 -5.578 -7.497 c -0.438 -0.437 -0.472 -0.779 -0.372 -1.347 c 0.16 -0.912,0.456 -1.976,0.148 -2.761 c -1.003 -2.561 -2.718 -4.478 -5.606 -5.05 c -2.987 -0.591 -5.975 -0.425 -8.973 -0.149 c -0.368,0.034 -0.838,0.008 -1.116 -0.192 c -1.081 -0.776 -2.255 -0.806 -3.428 -0.449 c -2.746,0.834 -5.104,2.35 -7.167,4.332 c -0.196,0.189 -0.391,0.407 -0.509,0.648 c -1.438,2.941 -3.719,5.24 -5.866,7.627 c -3.646,4.051 -6.103,8.694 -7.333,14.001 c -0.691,2.982 -1.408,5.958 -2.154,8.927 c -0.215,0.854 -0.397,1.795 -0.893,2.483 c -2.141,2.98 -4.857,5.244 -8.476,6.258 c -1.824,0.512 -3.696,0.905 -5.458,1.582 c -4.142,1.591 -8.233,3.313 -12.335,5.007 c -0.217,0.09 -0.342,0.403 -0.51,0.612 c 0.08,0.073,0.159,0.146,0.238,0.218 c 0.279 -0.107,0.562 -0.207,0.837 -0.322 c 2.683 -1.124,5.338 -2.316,8.051 -3.358 c 2.652 -1.018,5.307 -2.12,8.06 -2.756 c 3.875 -0.895,6.882 -2.975,9.384 -5.901 c 0.652 -0.764,1.134 -1.753,1.438 -2.719 c 0.552 -1.747,0.899 -3.559,1.354 -5.338 c 0.697 -2.726,1.267 -5.495,2.156 -8.157 c 1.451 -4.34,4.064 -7.991,7.166 -11.332 c 1.393 -1.499,2.856 -3.03,3.829 -4.8 c 1.907 -3.47,4.975 -5.204,8.482 -6.432 c 0.954 -0.334,1.909 -0.21,2.807,0.396 c 0.365,0.247,0.904,0.345,1.359,0.332 c 2.111 -0.056,4.223 -0.287,6.329 -0.242 c 2.938,0.063,5.502,0.921,7.166,3.679 c 0.902,1.496,0.879,2.852,0.176,4.362 c -1.303 -0.526 -2.649 -0.834 -3.62 -2.029 c -0.421 -0.52 -1.319 -0.879 -2.016 -0.903 c -1.488 -0.052 -2.985,0.154 -4.478,0.27 c -0.58,0.045 -1.156,0.129 -1.734,0.194 c -0.005,0.112 -0.009,0.224 -0.014,0.336 c 0.348,0.047,0.7,0.157,1.041,0.128 c 1.342 -0.119,2.678 -0.301,4.02 -0.424 c 1.575 -0.144,2.81,0.438,3.65,1.809 c 0.337,0.548,0.694,1.083,1.062,1.61 c 0.262,0.376,0.526,0.761,0.853,1.076 c 0.15,0.145,0.453,0.13,0.687,0.188 c -0.082 -0.197 -0.132 -0.416 -0.251 -0.588 c -0.361 -0.522 -0.749 -1.027 -1.127 -1.539 c 0.068 -0.076,0.137 -0.153,0.205 -0.229 c 0.824,0.441,1.804,0.724,2.443,1.353 c 2.285,2.243,4.165,4.82,5.652,7.662 c 0.262,0.5,0.313,1.109,0.462,1.668 c -0.126,0.069 -0.252,0.14 -0.377,0.209 c -0.684 -0.821 -1.517 -1.562 -2.016 -2.481 c -0.755 -1.393 -1.797 -2.171 -3.341 -2.423 c -1.232 -0.202 -2.444 -0.527 -3.668 -0.786 c -0.103 -0.022 -0.222,0.035 -0.623,0.11 c 0.413,0.309,0.617,0.567,0.869,0.629 c 0.949,0.232,1.906,0.479,2.875,0.575 c 1.731,0.171,2.9,0.988,3.542,2.618 c 0.324,0.823,0.741,1.613,1.161,2.395 c 0.152,0.283,0.434,0.497,0.655,0.743 c 0.085 -0.052,0.17 -0.104,0.254 -0.154 c -0.146 -0.375 -0.291 -0.749 -0.46 -1.181 c 1.78,1.413,3.998,5.225,4.074,7.05 c -0.226 -0.365 -0.398 -0.645 -0.572 -0.925 c -0.107,0.033 -0.215,0.066 -0.323,0.099 c 0.092,0.36,0.091,0.786,0.291,1.07 c 1.052,1.488,1.628,3.064,1.229,4.916 c -0.119,0.549,0.019,0.991,0.773,0.6 c 0.173,0.778,0.314,1.468,0.48,2.15 c 0.54,2.224,0.09,4.092 -1.774,5.586 c -0.598,0.479 -1.182,1.177 -1.396,1.888 c -0.373,1.235 -1.149,2.062 -2.081,2.824 c -0.783,0.641 -1.548,1.307 -2.368,1.896 c -4.964,3.565 -9.674,7.424 -13.959,11.797 c -1.877,1.916 -4.098,3.379 -6.521,4.565 c -2.525,1.235 -4.971,2.635 -7.468,3.93 c -2.169,1.124 -4.338,2.251 -6.552,3.28 c -1.44,0.67 -2.958,1.173 -4.444,1.743 C 288.532,434.03,284.461,436.701,280.285,439.183 z"/>
			<path d="M 280.285,439.183 c 4.176 -2.481,8.247 -5.152,12.819 -6.908 c 1.486 -0.57,3.004 -1.073,4.444 -1.743 c 2.214 -1.029,4.383 -2.156,6.552 -3.28 c 2.497 -1.295,4.942 -2.694,7.468 -3.93 c 2.423 -1.187,4.644 -2.649,6.521 -4.565 c 4.285 -4.373,8.995 -8.231,13.959 -11.797 c 0.82 -0.59,1.585 -1.256,2.368 -1.896 c 0.932 -0.762,1.708 -1.589,2.081 -2.824 c 0.215 -0.711,0.799 -1.409,1.396 -1.888 c 1.864 -1.494,2.314 -3.362,1.774 -5.586 c -0.166 -0.683 -0.308 -1.372 -0.48 -2.15 c -0.755,0.392 -0.893 -0.051 -0.773 -0.6 c 0.398 -1.852 -0.178 -3.428 -1.229 -4.916 c -0.2 -0.284 -0.199 -0.71 -0.291 -1.07 c 0.108 -0.032,0.216 -0.065,0.323 -0.099 c 0.174,0.28,0.347,0.56,0.572,0.925 c -0.076 -1.825 -2.294 -5.637 -4.074 -7.05 c 0.169,0.432,0.314,0.806,0.46,1.181 c -0.084,0.051 -0.169,0.103 -0.254,0.154 c -0.222 -0.246 -0.503 -0.46 -0.655 -0.743 c -0.42 -0.781 -0.837 -1.571 -1.161 -2.395 c -0.642 -1.63 -1.811 -2.447 -3.542 -2.618 c -0.969 -0.096 -1.926 -0.343 -2.875 -0.575 c -0.252 -0.062 -0.456 -0.32 -0.869 -0.629 c 0.401 -0.075,0.521 -0.133,0.623 -0.11 c 1.224,0.259,2.436,0.584,3.668,0.786 c 1.544,0.252,2.586,1.03,3.341,2.423 c 0.499,0.92,1.332,1.66,2.016,2.481 c 0.125 -0.069,0.251 -0.14,0.377 -0.209 c -0.148 -0.559 -0.2 -1.168 -0.462 -1.668 c -1.487 -2.842 -3.367 -5.419 -5.652 -7.662 c -0.64 -0.629 -1.619 -0.911 -2.443 -1.353 c -0.068,0.076 -0.137,0.153 -0.205,0.229 c 0.378,0.512,0.766,1.017,1.127,1.539 c 0.119,0.172,0.169,0.391,0.251,0.588 c -0.233 -0.059 -0.536 -0.044 -0.687 -0.188 c -0.326 -0.315 -0.591 -0.7 -0.853 -1.076 c -0.368 -0.527 -0.726 -1.062 -1.062 -1.61 c -0.841 -1.371 -2.075 -1.952 -3.65 -1.809 c -1.342,0.123 -2.678,0.305 -4.02,0.424 c -0.341,0.029 -0.693 -0.081 -1.041 -0.128 c 0.005 -0.112,0.009 -0.224,0.014 -0.336 c 0.578 -0.065,1.154 -0.149,1.734 -0.194 c 1.492 -0.115,2.989 -0.321,4.478 -0.27 c 0.696,0.024,1.595,0.384,2.016,0.903 c 0.971,1.195,2.317,1.503,3.62,2.029 c 0.703 -1.511,0.727 -2.866 -0.176 -4.362 c -1.664 -2.758 -4.228 -3.615 -7.166 -3.679 c -2.106 -0.045 -4.218,0.187 -6.329,0.242 c -0.455,0.013 -0.994 -0.085 -1.359 -0.332 c -0.897 -0.605 -1.853 -0.729 -2.807 -0.396 c -3.508,1.228 -6.575,2.962 -8.482,6.432 c -0.973,1.77 -2.437,3.301 -3.829,4.8 c -3.102,3.341 -5.715,6.992 -7.166,11.332 c -0.89,2.662 -1.459,5.432 -2.156,8.157 c -0.455,1.779 -0.803,3.591 -1.354,5.338 c -0.305,0.966 -0.786,1.955 -1.438,2.719 c -2.502,2.927 -5.509,5.007 -9.384,5.901 c -2.753,0.636 -5.407,1.738 -8.06,2.756 c -2.713,1.042 -5.368,2.234 -8.051,3.358 c -0.275,0.115 -0.558,0.215 -0.837,0.322 c -0.079 -0.072 -0.158 -0.145 -0.238 -0.218 c 0.168 -0.209,0.293 -0.522,0.51 -0.612 c 4.102 -1.693,8.193 -3.416,12.335 -5.007 c 1.762 -0.677,3.634 -1.07,5.458 -1.582 c 3.618 -1.014,6.335 -3.277,8.476 -6.258 c 0.495 -0.688,0.678 -1.63,0.893 -2.483 c 0.746 -2.969,1.463 -5.944,2.154 -8.927 c 1.23 -5.307,3.688 -9.95,7.333 -14.001 c 2.147 -2.387,4.429 -4.686,5.866 -7.627 c 0.118 -0.241,0.312 -0.459,0.509 -0.648 c 2.062 -1.982,4.421 -3.498,7.167 -4.332 c 1.173 -0.356,2.347 -0.327,3.428,0.449 c 0.278,0.2,0.748,0.227,1.116,0.192 c 2.998 -0.275,5.985 -0.441,8.973,0.149 c 2.889,0.572,4.604,2.489,5.606,5.05 c 0.308,0.785,0.012,1.849 -0.148,2.761 c -0.1,0.567 -0.066,0.91,0.372,1.347 c 2.229,2.218,4.068,4.743,5.578,7.497 c 0.315,0.575,0.594,1.264,0.589,1.897 c -0.006,0.982,0.289,1.769,0.85,2.537 c 1.646,2.257,2.391,4.862,2.896,7.567 c 0.349,1.863,0.791,3.71,1.184,5.565 c 0.472,2.232,0.051,4.131 -1.759,5.729 c -0.783,0.691 -1.213,1.783 -1.805,2.692 c -0.264,0.404 -0.457,0.892 -0.81,1.193 c -1.51,1.298 -3.008,2.621 -4.617,3.787 c -4.304,3.119 -8.394,6.479 -12.109,10.287 c -2.469,2.53 -5.366,4.422 -8.576,5.913 c -2.269,1.054 -4.498,2.245 -6.599,3.601 c -3.025,1.951 -6.381,3.104 -9.691,4.369 c -4.608,1.76 -8.828,4.227 -12.967,6.862 c -0.281,0.179 -0.67,0.188 -1.009,0.275 C 280.345,439.451,280.315,439.316,280.285,439.183 z" />
		</g>
		<g>
			<circle fill="#800000" cx="307" cy="294" r="36"/>
			<path d="M 327.508,311.029 c -10.746,4.225 -9.625,2.463 -12.179,3.486 c -0.374,0.149 -7.982 -4.01 -10.865 -4.261 c -2.885 -0.251 -13.925,2.117 -19.819 -3.08 c -5.893 -5.2 -2.532 -16.007 -2.532 -16.007 s 0.391 -14.145,11.382 -18.43 c 9.15 -3.568,12.924 -2.002,12.924 -2.002 l 12.961,3.926 l 4.157,3.321 c 0,0,6.667,10.076,7.711,11.343 C 332.291,290.594,340.052,306.098,327.508,311.029 z"/>
		</g>
		<g>
			<circle fill="#008000" cx="152" cy="136" r="62"/>
			<path d="M 129.451,177.428 c 0.037,0.125,0.074,0.25,0.111,0.377 c 0.347 -0.069,0.732 -0.062,1.032 -0.219 c 1.572 -0.826,3.115 -1.705,4.685 -2.537 c 0.399 -0.212,0.848 -0.342,1.286 -0.469 c 1.049 -0.306,2.186 -0.426,3.143 -0.908 c 2.211 -1.114,4.389 -2.316,6.486 -3.631 c 5.509 -3.45,10.153 -7.999,15.156 -12.092 c 0.238 -0.195,0.445 -0.55,0.479 -0.852 c 0.107 -0.945,0.704 -1.481,1.458 -1.872 c 1.032 -0.535,2.072 -1.069,3.151 -1.494 c 3.74 -1.473,5.286 -6.582,2.404 -9.396 c -0.46 -0.449 -0.387 -0.88 -0.05 -1.385 c 0.562 -0.839,1.105 -1.695,1.58 -2.585 c 0.6 -1.126,0.753 -2.332,0.309 -3.556 c -0.598 -1.65 -1.888 -2.686 -3.312 -3.569 c -1.104 -0.684 -2.238 -1.291 -3.623 -0.713 c -0.182,0.076 -0.509 -0.197 -0.768 -0.309 c 0.106 -0.23,0.154 -0.537,0.333 -0.675 c 0.554 -0.43,1.131 -0.845,1.746 -1.18 c 4.056 -2.212,8.072 -4.402,11.717 -7.358 c 4.078 -3.309,8.643 -6.019,12.992 -8.995 c 1.087 -0.744,2.197 -1.461,3.221 -2.285 c 0.393 -0.316,0.727 -0.866,0.824 -1.361 c 0.497 -2.521 -1.862 -5.583 -4.9 -4.707 c -3.012,0.869 -5.946,1.886 -8.638,3.542 c -1.354,0.832 -2.793,1.524 -4.195,2.276 c -5.15,2.763 -10.477,5.227 -15.073,8.931 c -0.855,0.689 -1.822,1.239 -2.738,1.853 c -0.639,0.428 -1.072,0.235 -1.374 -0.434 c -0.654 -1.451 -0.594 -2.91 -0.089 -4.385 c 0.923 -2.692,1.679 -5.454,2.786 -8.067 c 1.946 -4.591,4.118 -9.085,6.163 -13.634 c 0.575 -1.28,1.168 -2.576,1.518 -3.926 c 0.387 -1.493 -0.071 -2.892 -1.327 -3.86 c -1.234 -0.953 -2.634 -0.836 -3.887 -0.078 c -0.816,0.495 -1.606,1.173 -2.154,1.949 c -4.492,6.353 -9.061,12.663 -12.23,19.835 c -0.952,2.156 -1.906,4.319 -3.005,6.401 c -0.646,1.227 -1.472,2.402 -2.412,3.421 c -1.118,1.212 -2.007,2.513 -2.736,3.989 c -0.573,1.161 -1.353,2.244 -2.171,3.256 c -1.29,1.596 -2.775,3.038 -4.028,4.661 c -4.702,6.089 -9.329,12.237 -14.028,18.329 c -0.54,0.7 -1.278,1.335 -2.058,1.748 c -2.434,1.289 -4.933,2.456 -7.404,3.673 c -0.211,0.104 -0.408,0.234 -0.611,0.353 c 0.017,0.104,0.033,0.208,0.05,0.312 c 0.266 -0.019,0.569,0.04,0.792 -0.068 c 2.479 -1.203,4.938 -2.45,7.42 -3.646 c 0.997 -0.48,1.766 -1.167,2.406 -2.063 c 1.14 -1.596,2.332 -3.155,3.502 -4.73 c 4.569 -6.154,9.084 -12.352,14.311 -17.979 c 1.038 -1.118,1.841 -2.334,2.499 -3.707 c 0.521 -1.089,1.139 -2.215,1.984 -3.049 c 1.493 -1.474,2.632 -3.13,3.477 -5.025 c 0.474 -1.062,1.021 -2.094,1.461 -3.169 c 3.215 -7.869,8.046 -14.777,12.899 -21.667 c 0.618 -0.878,1.425 -1.742,2.342 -2.271 c 2.154 -1.244,4.212 -0.088,4.383,2.385 c 0.046,0.674 -0.135,1.417 -0.399,2.05 c -0.614,1.466 -1.286,2.914 -2.036,4.315 c -3.499,6.536 -5.88,13.518 -8.225,20.514 c -0.52,1.55 -0.414,3.092,0.341,4.551 c 0.521,1.006,1.032,1.193,2.005,0.613 c 1.182 -0.704,2.315 -1.497,3.428 -2.308 c 2.677 -1.95,5.401 -3.792,8.392 -5.269 c 3.62 -1.788,7.155 -3.756,10.67 -5.748 c 2.61 -1.479,5.393 -2.439,8.245 -3.298 c 2.199 -0.662,4.309,1.6,4.077,3.701 c -0.056,0.512 -0.399,1.132 -0.809,1.439 c -1.419,1.065 -2.934,2.002 -4.396,3.011 c -4.061,2.801 -8.254,5.434 -12.12,8.481 c -2.745,2.163 -5.592,4.057 -8.686,5.63 c -0.955,0.486 -1.909,0.979 -2.827,1.531 c -0.625,0.375 -1.226,0.816 -1.758,1.313 c -0.221,0.206 -0.41,0.725 -0.3,0.942 c 0.186,0.363,0.586,0.67,0.966,0.86 c 0.229,0.115,0.593 -0.072,0.895 -0.062 c 0.593,0.019,1.296 -0.109,1.756,0.161 c 1.148,0.674,2.29,1.427,3.242,2.348 c 1.308,1.265,1.464,2.867,0.619,4.48 c -0.549,1.049 -1.218,2.036 -1.894,3.149 c -1.069 -0.872 -2.052 -1.679 -3.043 -2.475 c -0.121 -0.098 -0.292 -0.135 -0.439 -0.2 c -0.016,0.187 -0.117,0.453 -0.031,0.547 c 0.345,0.38,0.754,0.701,1.128,1.055 c 1.037,0.982,2.182,1.878,3.076,2.976 c 1.688,2.071,1.317,5.173 -0.689,6.936 c -0.156,0.138 -0.362,0.342 -0.527,0.327 c -1.581 -0.151 -2.884,0.441 -3.885,1.586 c -0.852,0.975 -2.252,1.56 -2.329,3.138 c -0.01,0.212 -0.313,0.435 -0.52,0.609 c -2.689,2.279 -5.324,4.63 -8.095,6.808 c -5.12,4.022 -10.171,8.112 -16.773,9.704 C 133.559,174.769,131.561,176.332,129.451,177.428 z"/>
			<path d="M 129.451,177.428 c 2.109 -1.096,4.107 -2.659,6.351 -3.199 c 6.603 -1.592,11.653 -5.682,16.773 -9.704 c 2.771 -2.177,5.405 -4.528,8.095 -6.808 c 0.206 -0.174,0.51 -0.396,0.52 -0.609 c 0.077 -1.578,1.478 -2.163,2.329 -3.138 c 1.001 -1.145,2.304 -1.737,3.885 -1.586 c 0.165,0.016,0.371 -0.189,0.527 -0.327 c 2.007 -1.763,2.378 -4.865,0.689 -6.936 c -0.895 -1.098 -2.039 -1.994 -3.076 -2.976 c -0.374 -0.354 -0.783 -0.675 -1.128 -1.055 c -0.086 -0.095,0.016 -0.36,0.031 -0.547 c 0.147,0.065,0.318,0.102,0.439,0.2 c 0.991,0.795,1.974,1.603,3.043,2.475 c 0.676 -1.114,1.345 -2.1,1.894 -3.149 c 0.845 -1.613,0.688 -3.215 -0.619 -4.48 c -0.952 -0.921 -2.094 -1.674 -3.242 -2.348 c -0.46 -0.27 -1.163 -0.142 -1.756 -0.161 c -0.302 -0.01 -0.665,0.177 -0.895,0.062 c -0.38 -0.189 -0.78 -0.497 -0.966 -0.86 c -0.11 -0.217,0.079 -0.736,0.3 -0.942 c 0.532 -0.497,1.133 -0.938,1.758 -1.313 c 0.918 -0.552,1.872 -1.045,2.827 -1.531 c 3.094 -1.573,5.94 -3.467,8.686 -5.63 c 3.866 -3.047,8.06 -5.68,12.12 -8.481 c 1.463 -1.009,2.978 -1.945,4.396 -3.011 c 0.409 -0.307,0.753 -0.928,0.809 -1.439 c 0.231 -2.102 -1.878 -4.363 -4.077 -3.701 c -2.853,0.858 -5.635,1.819 -8.245,3.298 c -3.515,1.992 -7.05,3.96 -10.67,5.748 c -2.99,1.477 -5.715,3.319 -8.392,5.269 c -1.112,0.811 -2.246,1.604 -3.428,2.308 c -0.973,0.58 -1.484,0.393 -2.005 -0.613 c -0.755 -1.459 -0.86 -3.001 -0.341 -4.551 c 2.345 -6.996,4.726 -13.978,8.225 -20.514 c 0.75 -1.401,1.422 -2.849,2.036 -4.315 c 0.265 -0.632,0.445 -1.375,0.399 -2.05 c -0.171 -2.473 -2.229 -3.629 -4.383 -2.385 c -0.917,0.529 -1.724,1.392 -2.342,2.271 c -4.854,6.891 -9.685,13.799 -12.899,21.667 c -0.439,1.076 -0.987,2.107 -1.461,3.169 c -0.845,1.895 -1.983,3.551 -3.477,5.025 c -0.846,0.834 -1.463,1.96 -1.984,3.049 c -0.658,1.372 -1.461,2.588 -2.499,3.707 c -5.227,5.627 -9.742,11.826 -14.311,17.979 c -1.17,1.575 -2.362,3.134 -3.502,4.73 c -0.64,0.896 -1.409,1.583 -2.406,2.063 c -2.482,1.196 -4.941,2.442 -7.42,3.646 c -0.223,0.108 -0.526,0.049 -0.792,0.068 c -0.017 -0.104 -0.033 -0.208 -0.05 -0.312 c 0.203 -0.119,0.4 -0.25,0.611 -0.353 c 2.472 -1.218,4.97 -2.384,7.404 -3.673 c 0.78 -0.413,1.518 -1.048,2.058 -1.748 c 4.699 -6.092,9.326 -12.239,14.028 -18.329 c 1.253 -1.623,2.738 -3.064,4.028 -4.661 c 0.818 -1.012,1.598 -2.095,2.171 -3.256 c 0.729 -1.476,1.618 -2.777,2.736 -3.989 c 0.94 -1.019,1.766 -2.194,2.412 -3.421 c 1.099 -2.083,2.053 -4.245,3.005 -6.401 c 3.17 -7.172,7.738 -13.482,12.23 -19.835 c 0.548 -0.776,1.338 -1.454,2.154 -1.949 c 1.253 -0.758,2.652 -0.875,3.887,0.078 c 1.256,0.968,1.714,2.367,1.327,3.86 c -0.35,1.35 -0.942,2.646 -1.518,3.926 c -2.045,4.549 -4.217,9.043 -6.163,13.634 c -1.107,2.613 -1.863,5.375 -2.786,8.067 c -0.505,1.475 -0.565,2.934,0.089,4.385 c 0.302,0.669,0.735,0.862,1.374,0.434 c 0.916 -0.613,1.883 -1.163,2.738 -1.853 c 4.597 -3.705,9.923 -6.168,15.073 -8.931 c 1.402 -0.752,2.842 -1.444,4.195 -2.276 c 2.691 -1.655,5.626 -2.673,8.638 -3.542 c 3.038 -0.876,5.397,2.186,4.9,4.707 c -0.098,0.495 -0.432,1.045 -0.824,1.361 c -1.023,0.824 -2.134,1.541 -3.221,2.285 c -4.35,2.976 -8.914,5.686 -12.992,8.995 c -3.645,2.957 -7.661,5.146 -11.717,7.358 c -0.615,0.335 -1.192,0.75 -1.746,1.18 c -0.179,0.139 -0.227,0.445 -0.333,0.675 c 0.259,0.111,0.586,0.384,0.768,0.309 c 1.385 -0.577,2.519,0.029,3.623,0.713 c 1.425,0.883,2.715,1.918,3.312,3.569 c 0.444,1.224,0.291,2.43 -0.309,3.556 c -0.475,0.89 -1.019,1.746 -1.58,2.585 c -0.337,0.505 -0.41,0.936,0.05,1.385 c 2.882,2.814,1.336,7.923 -2.404,9.396 c -1.079,0.425 -2.119,0.959 -3.151,1.494 c -0.754,0.39 -1.351,0.926 -1.458,1.872 c -0.034,0.302 -0.241,0.656 -0.479,0.852 c -5.003,4.093 -9.647,8.643 -15.156,12.092 c -2.098,1.314 -4.275,2.517 -6.486,3.631 c -0.957,0.482 -2.094,0.603 -3.143,0.908 c -0.438,0.127 -0.887,0.257 -1.286,0.469 c -1.569,0.832 -3.112,1.711 -4.685,2.537 c -0.3,0.156 -0.686,0.149 -1.032,0.219 C 129.525,177.678,129.488,177.553,129.451,177.428 z"/>
		</g>
		<g>
			<circle fill="#008000" cx="239" cy="188" r="36"/>
			<path d="M 268.58,187.535 c -0.11,0.271 -0.235,0.535 -0.325,0.81 c -1.079,3.277 -4.289,5.031 -7.646,4.16 c -2.506 -0.651 -4.987 -1.401 -7.514 -1.953 c -3.066 -0.672 -6.068 -0.045 -9.019,0.806 c -0.238,0.07 -0.514,0.498 -0.529,0.772 c -0.247,4.23,0.567,8.22,2.803,11.874 c 0.771,1.259,1.484,2.552,2.262,3.808 c 2.151,3.471,0.456,8.387 -3.731,9.317 c -0.124,0.027 -0.233,0.114 -0.35,0.173 c -0.46,0 -0.92,0 -1.38,0 c -1.921 -0.577 -3.631 -1.438 -4.82 -3.168 c -2.111 -3.078 -1.38 -6.899,1.761 -8.664 c 0.552 -0.309,1.221 -0.45,1.854 -0.572 c 1.166 -0.221,1.55 -0.727,1.192 -1.862 c -0.265 -0.841 -0.652 -1.645 -0.974 -2.47 c -1.004 -2.564 -2.038 -5.117 -2.983 -7.704 c -0.257 -0.706 -0.597 -0.966 -1.327 -1 c -5.87 -0.264 -11.74 -0.537 -17.606 -0.862 c -1.664 -0.095 -3.351 -0.224 -4.967 -0.601 c -2.578 -0.6 -4.513 -2.386 -5.199 -4.582 c 9.071,0.3,18.084,0.601,27.276,0.903 c -2.534 -8.776 -5.011 -17.359 -7.522 -26.057 c 2.312,0.278,3.988,1.369,5.163,3.113 c 0.741,1.098,1.357,2.337,1.76,3.598 c 1.961,6.158,3.843,12.343,5.719,18.528 c 0.222,0.733,0.538,1.013,1.337,1.101 c 3.194,0.349,6.375,0.811,9.561,1.227 c 0.39,0.051,0.784,0.11,1.175,0.104 c 1.019 -0.012,1.449 -0.483,1.335 -1.489 c -0.539 -4.792,3.986 -7.412,8.049 -5.9 c 2.266,0.843,3.804,2.396,4.431,4.78 c 0.04,0.152,0.141,0.287,0.214,0.431 C 268.58,186.616,268.58,187.074,268.58,187.535 z M 261.967,190.012 c 2.143,0,3.753 -1.471,3.752 -3.425 c -0.001 -1.762 -1.833 -3.423 -3.772 -3.419 c -1.942,0.003 -3.56,1.619 -3.572,3.563 C 258.365,188.586,259.927,190.012,261.967,190.012 z M 240.052,210.795 c -0.007,1.901,1.663,3.654,3.495,3.667 c 1.804,0.015,3.189 -1.471,3.183 -3.413 c -0.008 -2.019 -1.519 -3.721 -3.312 -3.727 C 241.604,207.316,240.059,208.91,240.052,210.795 z"/>
		</g>
		<g>
			<circle fill="#000080" cx="454" cy="136" r="62"/>
			<path d="M 483.381,98.885 c -0.098 -0.8 -0.015 -1.64 -0.313 -2.309 c -1.026 -2.297 -3.074 -2.985 -5.628 -1.951 c -2.954,1.197 -5.585,2.973 -8.008,4.991 c -3.717,3.094 -7.279,6.374 -10.934,9.544 c -1.392,1.208 -2.856,2.33 -4.344,3.536 c -0.242 -1.865 -1.093 -2.573 -2.838 -2.229 c -1.187,0.234 -2.321,0.737 -3.478,1.125 c -2.024,0.679 -4.004,1.616 -6.083,1.979 c -2.527,0.442 -4.319,1.608 -5.696,3.72 c -2.551,3.913 -5.557,7.474 -8.704,10.919 c -0.398,0.436 -0.713,1 -0.908,1.561 c -1.307,3.758 -2.609,7.519 -3.838,11.303 c -1.053,3.242 -2.71,6.328 -2.619,9.885 c 0.008,0.283 -0.38,0.686 -0.684,0.848 c -1.617,0.87 -3.271,1.67 -4.898,2.523 c -0.216,0.113 -0.35,0.384 -0.521,0.581 c 0.258,0.001,0.561,0.092,0.768 -0.011 c 1.566 -0.77,3.094 -1.621,4.675 -2.356 c 0.882 -0.41,1.303 -0.973,1.354 -1.957 c 0.061 -1.155,0.091 -2.364,0.449 -3.444 c 1.911 -5.75,3.917 -11.47,5.904 -17.195 c 0.137 -0.395,0.319 -0.814,0.598 -1.114 c 3.486 -3.763,6.669 -7.768,9.558 -12.004 c 0.937 -1.373,2.16 -2.18,3.818 -2.427 c 2.622 -0.392,5.099 -1.247,7.49 -2.407 c 0.946 -0.459,2.015 -0.711,3.054 -0.925 c 0.642 -0.131,1.402 -0.126,1.776,0.614 c 0.399,0.792,0.156,1.602 -0.593,2.238 c -0.374,0.318 -0.729,0.663 -1.13,0.942 c -4.372,3.047 -8.787,6.035 -13.118,9.14 c -3.135,2.247 -6.164,4.641 -9.229,6.985 c -0.249,0.19 -0.409,0.495 -0.61,0.746 c 0.073,0.076,0.147,0.152,0.222,0.228 c 0.229 -0.145,0.476 -0.268,0.682 -0.44 c 0.612 -0.511,1.168 -1.097,1.815 -1.555 c 4.253 -3.004,8.464 -6.072,12.803 -8.946 c 5.666 -3.751,10.847 -8.097,15.963 -12.536 c 1.733 -1.504,3.477 -2.998,5.217 -4.495 c 1.068 -0.918,2.177 -1.793,3.201 -2.758 c 2.409 -2.269,5.151 -4.047,8.069 -5.564 c 0.722 -0.375,1.536 -0.6,2.332 -0.802 c 1.178 -0.299,2.164,0.093,2.962,1.001 c 0.823,0.938,1.137,1.973,0.492,3.115 c -0.309,0.546 -0.682,1.091 -1.138,1.515 c -5.642,5.231 -11.548,10.171 -16.847,15.777 c -1.946,2.058 -4.247,3.781 -6.378,5.665 c -0.145,0.128 -0.229,0.324 -0.343,0.489 c 0.066,0.071,0.133,0.142,0.199,0.212 c 0.352 -0.191,0.754 -0.325,1.046 -0.583 c 2.041 -1.805,4.178 -3.521,6.062 -5.48 c 6.729 -6.995,14.056 -13.323,21.471 -19.558 c 0.912 -0.767,1.991 -1.097,3.142 -1.126 c 2.28 -0.058,3.843,2.66,2.783,4.919 c -0.409,0.872 -1.025,1.67 -1.657,2.409 c -1.77,2.07 -3.584,4.101 -5.401,6.128 c -5.176,5.772 -10.222,11.669 -16.255,16.608 c -0.864,0.707 -1.536,1.656 -2.261,2.524 c -0.21,0.252 -0.292,0.611 -0.433,0.921 c 0.078,0.06,0.157,0.121,0.235,0.181 c 0.17 -0.146,0.359 -0.275,0.506 -0.441 c 0.909 -1.028,1.677 -2.231,2.734 -3.071 c 4.301 -3.412,7.909 -7.511,11.624 -11.5 c 2.674 -2.871,5.207 -5.873,7.813 -8.807 c 0.84 -0.945,1.858 -1.166,2.887 -0.676 c 1.87,0.891,2.676,3.707,1.536,5.426 c -2.826,4.263 -5.646,8.52 -8.783,12.577 c -2.562,3.313 -5.225,6.479 -8.364,9.254 c -1.005,0.889 -1.961,1.874 -2.758,2.95 c -1.292,1.744 -2.442,3.594 -3.627,5.416 c -0.115,0.178 -0.053,0.471 -0.073,0.71 c 0.199 -0.141,0.443 -0.247,0.588 -0.431 c 0.225 -0.287,0.38 -0.628,0.566 -0.944 c 1.584 -2.678,3.474 -5.1,5.699 -7.294 c 3.62 -3.567,7.14 -7.236,10.698 -10.866 c 0.579 -0.59,1.092 -1.254,1.717 -1.79 c 0.941 -0.808,2.282 -0.737,2.847,0.143 c 0.587,0.915,1.078,1.958,0.69,3.037 c -0.522,1.458 -1.122,2.914 -1.898,4.249 c -2.387,4.106 -5.609,7.585 -8.687,11.159 c -3.659,4.25 -7.479,8.361 -10.247,13.303 c -0.515,0.92 -1.236,1.777 -2.025,2.482 c -4.709,4.206 -9.402,8.435 -14.226,12.51 c -4.675,3.949 -9.674,7.417 -15.576,9.376 c -1.321,0.439 -2.558,1.132 -3.833,1.707 c 0.027,0.114,0.056,0.228,0.084,0.341 c 0.386 -0.063,0.803 -0.054,1.153 -0.203 c 1.55 -0.657,3.041 -1.467,4.624 -2.023 c 3.485 -1.226,6.566 -3.139,9.52 -5.297 c 5.877 -4.295,11.271 -9.162,16.675 -14.022 c 2.333 -2.099,4.209 -4.497,5.851 -7.151 c 1.155 -1.868,2.499 -3.635,3.9 -5.33 c 2.441 -2.954,5 -5.809,7.492 -8.72 c 2.574 -3.007,5.077 -6.073,6.854 -9.642 c 0.433 -0.869,0.773 -1.807,0.995 -2.751 c 0.347 -1.481 -0.562 -3.576 -1.66 -4.106 c -1.175 -0.567 -2.51 -0.113 -3.796,1.292 c -0.442,0.484 -0.881,0.972 -1.321,1.458 c -0.067 -0.184 -0.021 -0.281,0.039 -0.369 c 2.459 -3.547,4.911 -7.099,7.382 -10.638 c 0.718 -1.028,0.935 -2.108,0.537 -3.306 c -0.628 -1.895 -1.667 -3.323 -3.989 -3.402 c 0.262 -0.313,0.482 -0.522,0.638 -0.771 c 0.595 -0.955,1.361 -1.857,1.712 -2.897 c 1.04 -3.085 -1.433 -5.82 -4.583 -5.072 c -0.997,0.236 -1.941,0.844 -2.81,1.43 C 484.863,97.477,484.111,98.254,483.381,98.885 z"/>
			<path d="M 483.381,98.885 c 0.73 -0.631,1.482 -1.408,2.358 -2 c 0.868 -0.586,1.812 -1.194,2.81 -1.43 c 3.15 -0.748,5.623,1.987,4.583,5.072 c -0.351,1.041 -1.117,1.943 -1.712,2.897 c -0.155,0.25 -0.376,0.458 -0.638,0.771 c 2.322,0.079,3.361,1.507,3.989,3.402 c 0.397,1.198,0.181,2.278 -0.537,3.306 c -2.471,3.539 -4.923,7.09 -7.382,10.638 c -0.061,0.087 -0.106,0.185 -0.039,0.369 c 0.44 -0.486,0.879 -0.973,1.321 -1.458 c 1.286 -1.405,2.621 -1.858,3.796 -1.292 c 1.098,0.53,2.007,2.625,1.66,4.106 c -0.222,0.944 -0.562,1.883 -0.995,2.751 c -1.776,3.569 -4.279,6.635 -6.854,9.642 c -2.492,2.912 -5.051,5.767 -7.492,8.72 c -1.401,1.695 -2.745,3.462 -3.9,5.33 c -1.642,2.654 -3.518,5.052 -5.851,7.151 c -5.404,4.86 -10.798,9.728 -16.675,14.022 c -2.953,2.158 -6.034,4.071 -9.52,5.297 c -1.583,0.557 -3.074,1.366 -4.624,2.023 c -0.351,0.149 -0.768,0.14 -1.153,0.203 c -0.028 -0.113 -0.057 -0.227 -0.084 -0.341 c 1.275 -0.575,2.512 -1.268,3.833 -1.707 c 5.902 -1.959,10.901 -5.427,15.576 -9.376 c 4.823 -4.075,9.517 -8.304,14.226 -12.51 c 0.789 -0.705,1.511 -1.562,2.025 -2.482 c 2.768 -4.941,6.588 -9.053,10.247 -13.303 c 3.077 -3.574,6.3 -7.053,8.687 -11.159 c 0.776 -1.335,1.376 -2.791,1.898 -4.249 c 0.388 -1.079 -0.104 -2.123 -0.69 -3.037 c -0.564 -0.879 -1.905 -0.951 -2.847 -0.143 c -0.625,0.536 -1.138,1.199 -1.717,1.79 c -3.559,3.63 -7.078,7.298 -10.698,10.866 c -2.226,2.194 -4.115,4.616 -5.699,7.294 c -0.187,0.316 -0.342,0.657 -0.566,0.944 c -0.145,0.184 -0.389,0.29 -0.588,0.431 c 0.021 -0.239 -0.042 -0.532,0.073 -0.71 c 1.185 -1.822,2.335 -3.672,3.627 -5.416 c 0.797 -1.076,1.753 -2.061,2.758 -2.95 c 3.14 -2.775,5.803 -5.941,8.364 -9.254 c 3.137 -4.058,5.957 -8.314,8.783 -12.577 c 1.14 -1.719,0.334 -4.535 -1.536 -5.426 c -1.028 -0.49 -2.047 -0.27 -2.887,0.676 c -2.606,2.934 -5.14,5.936 -7.813,8.807 c -3.715,3.989 -7.323,8.087 -11.624,11.5 c -1.058,0.839 -1.825,2.042 -2.734,3.071 c -0.146,0.166 -0.336,0.295 -0.506,0.441 c -0.078 -0.061 -0.157 -0.121 -0.235 -0.181 c 0.141 -0.31,0.223 -0.669,0.433 -0.921 c 0.725 -0.868,1.396 -1.817,2.261 -2.524 c 6.033 -4.939,11.079 -10.836,16.255 -16.608 c 1.817 -2.027,3.632 -4.059,5.401 -6.128 c 0.632 -0.738,1.248 -1.537,1.657 -2.409 c 1.06 -2.259 -0.503 -4.977 -2.783 -4.919 c -1.15,0.029 -2.229,0.36 -3.142,1.126 c -7.415,6.235 -14.741,12.563 -21.471,19.558 c -1.884,1.959 -4.021,3.675 -6.062,5.48 c -0.292,0.258 -0.694,0.392 -1.046,0.583 c -0.066 -0.071 -0.133 -0.142 -0.199 -0.212 c 0.113 -0.165,0.198 -0.36,0.343 -0.489 c 2.131 -1.884,4.432 -3.607,6.378 -5.665 c 5.299 -5.606,11.205 -10.546,16.847 -15.777 c 0.456 -0.423,0.829 -0.968,1.138 -1.515 c 0.645 -1.143,0.331 -2.177 -0.492 -3.115 c -0.798 -0.909 -1.784 -1.3 -2.962 -1.001 c -0.796,0.202 -1.61,0.426 -2.332,0.802 c -2.918,1.517 -5.66,3.295 -8.069,5.564 c -1.024,0.965 -2.133,1.84 -3.201,2.758 c -1.74,1.497 -3.483,2.991 -5.217,4.495 c -5.116,4.439 -10.297,8.785 -15.963,12.536 c -4.339,2.874 -8.55,5.942 -12.803,8.946 c -0.647,0.458 -1.203,1.044 -1.815,1.555 c -0.206,0.172 -0.453,0.295 -0.682,0.44 c -0.074 -0.076 -0.148 -0.151 -0.222 -0.228 c 0.201 -0.251,0.361 -0.556,0.61 -0.746 c 3.064 -2.344,6.094 -4.738,9.229 -6.985 c 4.331 -3.105,8.746 -6.093,13.118 -9.14 c 0.401 -0.279,0.756 -0.625,1.13 -0.942 c 0.749 -0.637,0.992 -1.447,0.593 -2.238 c -0.374 -0.74 -1.135 -0.746 -1.776 -0.614 c -1.039,0.213 -2.107,0.465 -3.054,0.925 c -2.392,1.16 -4.868,2.015 -7.49,2.407 c -1.658,0.248 -2.882,1.054 -3.818,2.427 c -2.889,4.236 -6.071,8.241 -9.558,12.004 c -0.278,0.3 -0.461,0.719 -0.598,1.114 c -1.987,5.725 -3.993,11.445 -5.904,17.195 c -0.358,1.08 -0.389,2.289 -0.449,3.444 c -0.051,0.984 -0.472,1.547 -1.354,1.957 c -1.581,0.735 -3.108,1.587 -4.675,2.356 c -0.207,0.103 -0.51,0.012 -0.768,0.011 c 0.171 -0.197,0.305 -0.468,0.521 -0.581 c 1.627 -0.853,3.281 -1.653,4.898 -2.523 c 0.304 -0.163,0.691 -0.565,0.684 -0.848 c -0.091 -3.557,1.566 -6.643,2.619 -9.885 c 1.229 -3.784,2.531 -7.545,3.838 -11.303 c 0.195 -0.561,0.51 -1.125,0.908 -1.561 c 3.147 -3.446,6.153 -7.007,8.704 -10.919 c 1.377 -2.111,3.169 -3.278,5.696 -3.72 c 2.079 -0.363,4.059 -1.3,6.083 -1.979 c 1.156 -0.388,2.291 -0.891,3.478 -1.125 c 1.745 -0.344,2.596,0.364,2.838,2.229 c 1.487 -1.206,2.952 -2.329,4.344 -3.536 c 3.654 -3.17,7.217 -6.45,10.934 -9.544 c 2.423 -2.018,5.054 -3.794,8.008 -4.991 c 2.554 -1.034,4.602 -0.346,5.628,1.951 C 483.366,97.245,483.283,98.084,483.381,98.885 z"/>
		</g>
		<g>
			<circle fill="#000080" cx="367" cy="191" r="36"/> 
			<path d="M 371.735,165.134 c 0,6.523,0,13.003,0,19.58 c 5.366 -0.793,10.732 -1.586,16.152 -2.388 c 0,11.142,0,22.207,0,33.318 c -12.781,0 -25.518,0 -38.321,0 c 0 -16.814,0 -33.626,0 -50.511 C 356.942,165.134,364.333,165.134,371.735,165.134 z"/>
			<line x1="387.888" y1="182.326" x2="371.735" y2="165.134"/>^
		</g>
	</g>
	<g transform="translate(308 219)" style="font-family :Arial, sans-serif; text-anchor :middle;">
		<text transform="rotate(0)  translate(0 -130)"><tspan x="0" y="-5" style="font-size :30px;">Scissors</tspan><tspan x="0" y="20" style="font-size :18px;">beats paper</tspan></text>
		<text transform="rotate(-60) translate(0 130)"><tspan x="0" y="-5" style="font-size :30px;">Paper</tspan><tspan    x="0" y="20" style="font-size :18px;">beats rock</tspan></text>
		<text transform="rotate(60)  translate(0 130)"><tspan x="0" y="-5" style="font-size :30px;">Rock</tspan><tspan     x="0" y="20" style="font-size :18px;">beats scissors</tspan></text>
	</g>
</svg>	